<?xml version="1.0" encoding="UTF-8"?>
<svg id="Layer_1" xmlns="http://www.w3.org/2000/svg" version="1.1" viewBox="0 0 1920 1920">
  <!-- Generator: Adobe Illustrator 29.3.1, SVG Export Plug-In . SVG Version: 2.1.0 Build 151)  -->
  <defs>
    <style>
      .st0 {
        fill: #1c1c1c;
      }
    </style>
  </defs>
  <path class="st0" d="M1339.34,762.55c-202.2-116.51-537.27-117.49-742.8-8.7-117.9,62.42-216.19,182.9-120.88,313.29,98.66,134.94,335.82,180.49,492.97,179.17,1.63,0,3.25.03,4.88,0,148.28-1.86,361.69-47.11,461.03-166.44,103.91-124.78,24.49-248.33-95.21-317.32ZM1266.18,752.05c69.26,26.69,169.86,91.58,187.88,168.67,4.4,18.9-8.1,15.85-16.53,27.33-4.3,5.86-8.2,23.54-16.73,23-12.33-.75-3.39-29.87-2.91-36.95.75-11.18-1.66-25.64-13.01-30.82-12.7-5.79-26.01.34-33.16,11.52-2.98,4.67-12.67,33.43-20.35,16.8-3.83-8.23-3.59-30.82-5.08-41.19-7.99-55.48-48.23-97.68-92.26-128.67-9.89-6.98-21.07-12.06-30.72-18.8-1.63-1.12-3.59-2.17-4.44-4.06,16.02,1.69,32.31,7.38,47.31,13.17ZM1241.19,964.54c-19.75,48.54-104.45,68.04-131.08,15.75-17.71-34.75,7.99-96.22,48.43-100.76,24.76-2.78,49.52,7.38,67.64,23.71,19.37,17.51,25.16,36.31,15,61.3ZM861.64,704.19c2.14-2.44,11.41-3.86,14.8-4.3,65.81-8.47,151.02-3.76,216.77,5.83,26.59,3.86,61.34,9.18,86.27,18.49,2.03.78,13.01,4.78,12.57,6.91-4.81,2.78-11.38,1.63-16.63,2.07-22.42,1.9-36.75,3.12-57.58,12.29-37.26,16.36-73.02,36.68-102.9,64.42-4.67,4.34-10.4,9.96-14.12,15.11-4.78,6.54-8.3,17.24-14.7,21.85-5.42,3.86-13.99,5.25-20.19,9.08-10.19,6.3-19.2,21.54-30.96,22.63-8.43.75-17.58-1.49-26.01-1.69-14.9-.41-31.19,1.39-45.49.85-23.03-.95.88-15.78,6.88-21.51,11.11-10.6,21.17-21.3,26.59-35.94,4.47-12.02,3.35-24.89,13.65-33.5,6.3-5.28,18.83-9.11,14.39-20.08-2.74-6.74-18.22-4.4-25.4-11.99-8.91-9.35-14.87-24.11-25.57-34.55-2.98-2.88-16.56-11.14-12.36-15.95ZM1038.65,930.23c-13.28,29.16-77.73,25.94-87.93-4.2-9.28-27.54,14.87-52.43,41.29-55.41,34.85-3.96,62.29,25.37,46.64,59.61ZM929.69,942.26c-2.07,4.98-6.13,6.67-11.21,7.49-21.51,3.49-46.1,1.42-68.05,4.27-18.32,2.4-21.23,8.33-23.84,25.67-1.83,11.85,1.12,22.66-15.11,23.88-23.13,1.76-48.23-1.42-71.53,0-16.09.98-33.77,9.21-32.89-15.04.64-18.15,2.75-41.12,4.88-59.27,1.76-15.11,2.91-25.54,20.12-26.96,13.95-1.15,31.84,1.25,46.03,1.42,46.57.54,93.14-.58,139.68.07,5.89.81,10.03,2.17,12.26,8.03,2.14,5.62,2,24.83-.34,30.45ZM758.88,718.79c8.6-1.86,13.75-.1,21.58-.31,7.04-.17,14.6-3.79,21.47-4.57,38.48-4.4,79.66,35.02,79.69,73.33.03,31.36-22.42,48.23-52.19,35.94-4.74-1.96-19.17-12.97-23.34-7.69-3.69,13.21,12.09,21.44,22.02,26.08,5.22,2.4,19.07,4.13,12.87,12.87-5.25,7.35-35.76,17.61-44.98,18.36-38.78,3.18-90.64-20.76-96.26-62.9-5.39-40.51,17.78-82.13,59.14-91.11ZM470.86,906.69c25.57-65.98,96.83-115.19,158.71-144.18,11.14-5.22,37.83-17.98,48.84-19.37,4.57-.61,8.84-.44,9.18,5.08.37,5.15-4.37,17.48-5.45,23.78-6.91,39.05,1.8,68.59,31.84,94.29,3.22,2.78,15.82,11.21,17.04,13.85,1.29,2.78.24,4.47-2.27,5.83-5.01,2.71-13.41,3.52-19.24,5.96-19.41,8.03-12.57,17.71-15.51,34.01-2,11.04-12.57,11.89-18.15,20.83-4.94,7.99-9.82,35.12-18.93,37.12-10.87,2.41-9.31-15.55-9.18-22.18.64-32.65,3.52-55.85-11.45-86.74-11.04-22.73-32.07-26.05-42.3-1.08-9.48,23.2-9.42,54.7-16.33,79.49-2.78,10.09-11.31,34.58-25.71,25.37-16.6-10.57-11.01-48.64-37.76-44.95-14.94,2.07-27.94,32.48-43.56,20.66-13.58-10.33-4.88-34.61.24-47.76ZM601.83,1140.8c-9.72-.58-43.93-25.16-53.11-32.21-29.94-22.93-59.64-54.19-74.95-89.08-4-9.04-13.95-35.29-9.52-43.89,2.88-5.59,12.23-3.86,17.31-4.61,11.92-1.79,17.51-11.07,26.18-16.87,15.61-10.36,18.83,13.95,24.52,23.95,7.69,13.51,21.95,26.11,37.93,16.56,28.69-17.17,27.26-78.37,36.34-107.4,1.02-3.22,3.18-8.67,6.87-9.42,7.76-1.59,11.69,11.45,13.41,17.1,9.31,29.87,1.15,53.58,3.01,82.24,1.46,22.46,17.27,41.9,38.61,23.1,3.56-3.15,13.01-18.12,16.93-16.97,4.54,1.32,4.17,25.13,3.83,29.6-1.9,24.12-39.05,66.15-53.52,87.01-7.35,10.6-14.29,25.33-22.08,34.72-3.62,4.37-5.79,6.5-11.79,6.16ZM729.62,1193.3c-25.13-6.43-63.23-18.39-85.96-30.18-17.85-9.28-8.84-18.09-1.12-31.23,16.33-27.74,34.51-54.87,52.4-81.59,1.32-.75,3.15-2.57,4.57-2.78,3.49-.58,5.89,3.66,7.11,6.37,7.82,17.17,12.74,42.1,18.9,60.69,6.06,18.29,13.01,36.07,21.2,53.51,2.78,5.89,8.23,13.38,9.92,19.31,4.98,17.34-17.85,8.26-27.03,5.89ZM896.73,1221.21c-23.88-.24-56.43-5.08-80.27-9.14-10.57-1.76-24.89-2.2-30.21-12.84-21.78-49.58-35.33-102.01-57.1-151.57-3.05-6.91-16.53-25.23-2.81-27.67,9.85-1.8,20.83,1.18,30.65,1.46,17.31.47,38.71-1.9,55.28-.03,10.03,1.12,16.63,12.9,21.54,20.69,6.87,10.87,12.33,22.66,19.14,33.63,5.25,8.47,17.1,29.06,26.93,30.72,14.87,2.54,40.17-15.21,53.82-22.15,13.75-6.94,30.38-18.87,43.39-4.37,13.07,17.27,29.81,32.68,42.71,49.89,9.15,12.13,10.09,17.71-3.76,26.22-25.91,15.82-53.01,30.48-79.32,45.76-11.58,6.74-26.49,19.54-39.97,19.41ZM1290.64,1156.89c-88.98,41.66-192.68,61.44-290.7,65.06-12.43.47-25.74,1.9-38.24.85-9.25-.81-14.43-3.89-5.52-11.28,10.16-8.4,33.29-21.3,45.52-28.38,11.92-6.91,44.64-20.05,46.47-34.75.37-2.88-.03-5.22-.78-7.99-3.19-11.75-41.15-53.51-51.52-64.59-6.23-6.67-17.48-19.1-26.38-20.73-15.62-2.88-42.71,15.58-56.87,22.76-15.78,8.03-25.23,15.34-38.07-1.79-7.15-9.52-31.09-45.25-32.41-55.24-.88-6.3,3.79-29.94,5.86-36.75,2.44-8.2,7.11-10.74,15.41-11.38,21.61-1.69,56.83,4.54,75.43-6.64,6.3-3.76,7.99-8.84,17.04-6.98,4.03.85,12.57,7.52,15.17,10.8,7.55,9.52,14.5,41.63,20.19,55.34,17.27,41.49,49.14,77.26,90.6,95.41,36.88,16.12,95.04,21.41,133.17,7.76,39.53-14.16,73.5-30.72,98.73-65.3,11.04-15.11,33.33-50.16,37.29-67.5,2.27-9.92,1.39-21,3.59-29.7,2.54-10.03,11.62-12.77,17.31-20.05,5.25-6.71,14.33-39.46,27.81-26.45,7.79,7.52-.61,26.79-1.32,36.68-.78,10.87.51,25.94,10.13,32.89,10.7,7.69,21.61.85,28.82-7.76,3.79-4.47,9.35-17.41,12.23-19.44,13.38-9.28,7.99,21.78,6.91,27.23-15.48,77.9-98.43,136.33-165.86,167.93Z"/>
  <path class="st0" d="M824.32,781.61c17.85-.51,16.87-33.53-2.91-31.19-18.59,2.2-14.22,31.67,2.91,31.19Z"/>
  <path class="st0" d="M1174.33,928.61c-7.11,0-12.87,5.76-12.87,12.84s5.76,12.87,12.87,12.87,12.87-5.76,12.87-12.87-5.76-12.84-12.87-12.84Z"/>
</svg>