<?xml version="1.0" encoding="UTF-8"?>
<svg id="Layer_1" xmlns="http://www.w3.org/2000/svg" version="1.1" viewBox="0 0 1920 1920">
  <!-- Generator: Adobe Illustrator 29.3.1, SVG Export Plug-In . SVG Version: 2.1.0 Build 151)  -->
  <defs>
    <style>
      .st0 {
        fill: #1c1c1c;
      }
    </style>
  </defs>
  <g id="ZK8okj.tif">
    <g>
      <path class="st0" d="M174.87,865.16c-72.8-72.79,32-186.41,110.82-119.1,6.21,5.3,14.29,18.63,21.64,19.49,7.42.86,33.43-8.87,37.67-14.75,5.07-7.03,2.28-18.53,2.96-26.93,2.44-30.1,25.52-58.76,53.87-68.42,66.24-22.57,128.35,41.76,102.64,107.03-5.3,13.46-16.48,20.18-5.27,34.69,12.87,16.66,29.89,27.82,49.43,12.78,4.57-3.51,8.92-11.16,15.6-11.15,5.39,0,15.23,11.14,23.41,13.34,9.35,2.51,23.1-1.53,28.27.65,5.28,2.22,8.54,20.83,14.5,27.73,6.64,7.69,23.28,9.82,22.01,20.84-1.13,9.75-6.96,13.05-5.36,26.97,1.12,9.71,12.4,18.39,5.04,27.26-5.93,7.14-14.02,7.36-19.53,18.27-4.17,8.27-2.79,24.51-12.82,26.09-9.36,1.47-16.04-1.74-26.06,2.85-6.7,3.06-14.44,14.18-19.55,14.99-7.92,1.26-17.95-12.41-29.09-14.17-10.65-1.68-24.39,5.84-29.41-5.06-4.9-10.64-3.54-18.12-14.81-26.32-11.95-8.69-34.55.15-41.41,11.93-.13,20.98-1.76,38.98-12.73,57.3-6.76,11.28-21.2,21.42-4.78,34.11,10.51,8.13,23.07-.93,34.82-2.98,37.96-6.61,75.04,12.5,90.11,48.15,4.91,11.62,3.57,24.75,19.78,25.89,17.69,1.24,17.37-14.42,22.43-26.24,13.86-32.39,47.62-52.32,82.9-49.11,14.14,1.28,30.82,13.89,41.31.99,10.77-13.24-4.44-22.25-11.05-33.45-39.8-67.42,27.34-145.93,99.72-117.46,43.99,17.3,63.63,69.6,42.57,112.04-3.29,6.63-15.86,20.77-16.11,26.16-.2,4.5,3.98,9.79,7.13,12.72,14.06,13.07,22.07,3.09,37.03.27,38.51-7.25,78.15,13.92,91.98,50.84,6.58,17.56,4.97,33.15,4.16,51.41,3.71,10.85,16.34,14.51,25.21,6.81,13.42-11.64,16.96-21,35.71-28.77,78.54-32.56,148.37,62.83,93.35,127.76-49.85,58.84-146.64,20.21-143.46-56.7.4-9.65,6.13-23.16-7.1-28.38-14.88-5.87-20.36,9.11-29.54,17.32-67.84,60.72-170.56-20.32-124.74-101.34,7.68-13.59,22.46-22.05,3.55-36.51-12.02-9.19-19.06-1.71-31.34.96-8.88,1.93-18.95,2.54-28.04,1.7-12.53-1.16-27.2-11.35-37.39-.4-12.07,12.97,3.07,23.67,9.46,34.98,55.76,98.65-99.8,175.14-144.97,72.66-5.01-11.36-4.69-26.67-20.85-26.95-17.45-.3-16.34,13.12-21.37,25.08-9.43,22.44-29.12,40.78-52.73,47.32-71.66,19.88-130.07-56.64-91.81-120.66,5.79-9.68,16.37-15.97,8.04-28.49-11.51-17.3-29.15-2.83-45.66-1.33-38.14,3.47-75.6-21.46-85.72-58.52-23.05-84.44,82.36-140.91,140.36-74.72,11.65,13.3,11.54,24.76,33.54,13.55,13.1-6.67,17.96-18.18,15.66-32.71-1.16-7.36-8.79-15.5-7.3-22.25,1.21-5.48,9.12-8.17,13.03-11.46,8.62-7.25,14.79-18.23,10.96-29.66-1.82-5.43-13.92-19.45-18.69-22.44-9.8-6.14-17.96,2.1-26.67,5.49-31.61,12.31-67.24,5.53-90.62-19.42-7.93-8.46-11.7-22.75-25.46-21.04-5.12.64-26.62,10.02-29.4,13.97-4.73,6.71-1.36,12.08-1.24,18.68,1.41,78-83.63,120.8-138.65,65.79ZM498.4,732.08c0-38.27-31.04-69.29-69.33-69.29s-69.33,31.02-69.33,69.29,31.04,69.29,69.33,69.29,69.33-31.02,69.33-69.29ZM301.95,807.73c0-38.29-31.06-69.34-69.37-69.34s-69.37,31.04-69.37,69.34,31.06,69.34,69.37,69.34,69.37-31.04,69.37-69.34ZM562.27,816.87c-4.28.84-10.24,5.92-14.51,7.77-6.65,2.88-12.8,3.26-19.18,5.28-10.67,3.38-9.49,10.21-14.03,18.21-3.85,6.78-15.06,16.46-16.26,22.69-1.04,5.4,2.77,13.54,3.14,19.69.63,10.3-4.62,19.45,2.72,28.41,4.08,4.98,13.4,8.81,16.18,12.73,2.16,3.05,2.04,7.44,3.6,10.85,4.82,10.6,16.94,7.92,26.4,10.29,7.22,1.81,14.52,7.66,21.64,7.28,6.73-.36,12.14-6.21,18.08-8.69,6.15-2.57,13.73-2.75,19.23-5.23,8.24-3.73,7.41-11.04,11.28-17.62,4.64-7.88,15.44-13.59,17.17-22.93.99-5.34-2.54-13.44-2.93-19.44-.45-6.9,1.88-14.01,1.18-20.08-.99-8.54-10.45-12.73-15.57-18.89-4.58-5.51-8.09-15.99-14.07-19.28-5.59-3.07-14.81-2.27-21.56-4.01-6.99-1.8-15.47-8.4-22.5-7.02ZM861.11,956.79c0-38.29-31.05-69.32-69.36-69.32s-69.36,31.04-69.36,69.32,31.05,69.32,69.36,69.32,69.36-31.04,69.36-69.32ZM446.65,958.82c0-38.22-31-69.2-69.24-69.2s-69.24,30.98-69.24,69.2,31,69.2,69.24,69.2,69.24-30.98,69.24-69.2ZM561.25,1112.35c0-38.31-31.07-69.36-69.4-69.36s-69.4,31.06-69.4,69.36,31.07,69.36,69.4,69.36,69.4-31.06,69.4-69.36ZM753.26,1112.37c0-38.31-31.07-69.37-69.4-69.37s-69.4,31.06-69.4,69.37,31.07,69.37,69.4,69.37,69.4-31.06,69.4-69.37ZM977.61,1112.34c0-38.19-30.98-69.16-69.19-69.16s-69.19,30.96-69.19,69.16,30.98,69.16,69.19,69.16,69.19-30.96,69.19-69.16ZM1150.54,1187.94c0-38.3-31.07-69.36-69.39-69.36s-69.39,31.05-69.39,69.36,31.07,69.36,69.39,69.36,69.39-31.05,69.39-69.36Z"/>
      <path class="st0" d="M1634.84,739.19c5.36-4.95,12.08-.85,18.02-.37,8.3.67,14.03-.32,21.29-4.24,6.81-3.68,12.28-12.46,20.34-7.35,11.6,7.36,10.97,16.14,29.65,18.15,8.87.96,16.95-3.29,20.14,7.66,3.18,10.93.76,16.94,9.74,26.94,6.9,7.68,19.58,9.52,14.46,22.22-3.38,8.37-8.19,11.8-8.09,22.78.08,9.92,10.02,21.05,1.44,28.36-11.2,9.55-18.29,5.4-26.36,23.67-4.13,9.35-1.26,15.86-14.83,15.27-11.48-.5-15.93-4.15-28.21,1.72-8.33,3.98-14.06,15.09-24.5,6.49-8.22-6.76-10.81-14.22-24.07-15.95-9.18-1.2-19.75,3.89-23.06-8.07-3.2-11.55-1.34-18.92-11.33-28.68-3.42-3.35-12.01-6.76-13.39-11.06-2.51-7.83,4.26-14.26,6.48-21.42,4.84-15.58-.82-29.51-16.38-35.37-15.43-5.81-18.69,6.48-28.4,15.07-23.45,20.74-51.27,24.54-80.95,16.42-11.09-3.04-19.9-11.27-28.27,3.34-7.7,13.44,5.77,22.43,11.22,33.71,37.2,77-54.03,151.98-122.72,100.43-11.62-8.72-14.52-20.6-31.04-18.75-10.73,1.2-17.88,5.62-17.35,17.09,1.02,22,3.73,32.99-6.88,54.28-37.23,74.69-152.28,48.49-154.36-34.28-.38-14.97,9.24-28.7-7.04-37.4-24.07-12.87-25.36,6.23-38.94,19.81-64.44,64.38-171.05-12.04-130.32-94.13,35.94-72.42,147.23-51.28,154.04,28.41,1.67,19.52-4.56,27,18.61,34.75,18.81,6.29,20.7-6.11,33.14-16.39,30.99-25.61,76-24.75,106.17,1.62,12.87,11.25,15.92,25.35,37.1,14.88,12.56-6.21,5.87-17.58,5.16-28.22-4.02-59.71,50.45-98.55,106.75-83.35,10.31,2.78,18.92,11.1,27.6-1.28,10.33-14.73-5.32-25.89-11.13-39.63-30.44-72.07,48.6-141.31,116.18-101.67,28.49,16.71,41.08,45.76,39.68,78.12-.51,11.71-6.51,18.56,7.06,26.31,14.15,8.08,28.77,1.91,36.12-12.05,2.4-4.56,3.99-14.82,7.21-17.79ZM1572.77,734.47c0-38.31-31.07-69.37-69.4-69.37s-69.4,31.06-69.4,69.37,31.07,69.37,69.4,69.37,69.4-31.06,69.4-69.37ZM1685.38,743.54c-6.47.92-13.92,6.03-21.7,7.25-5.21.82-9.83-.32-15.22,1.46-8.3,2.73-11.79,14.53-17.97,20.94-8.2,8.51-15.31,8.02-14.96,22.94.08,3.49,1.29,6.46,1.21,9.9-.15,6.71-4.38,15.24-4.52,21.23-.21,8.81,9.73,15.26,13.87,22.8,3.29,6,4.14,13.71,9.49,18.3,5.44,4.69,14.99,5.12,21.91,8.11,5.79,2.5,11.77,8.45,17.57,9.11,9.27,1.05,15.17-4.91,23.64-6.43,5.34-.96,11.64-.04,17.23-1.67,9.11-2.65,12.23-14.67,18.65-21.37,3.9-4.08,11.78-7.54,13.59-13.09,2.35-7.21.05-17.78.98-25.7.49-4.19,2.83-8.24,3.22-12.33,1.2-12.68-8.4-16.29-13.84-26.19-3.04-5.53-4.49-14.51-9.46-18.33-4.88-3.75-14.09-4.27-20.06-6.63-7.91-3.13-14.94-11.53-23.64-10.3ZM1456.08,884.45c0-38.3-31.06-69.35-69.38-69.35s-69.38,31.05-69.38,69.35,31.06,69.35,69.38,69.35,69.38-31.05,69.38-69.35ZM1093.36,891.92c0-38.27-31.04-69.29-69.33-69.29s-69.33,31.02-69.33,69.29,31.04,69.29,69.33,69.29,69.33-31.02,69.33-69.29ZM1278.48,964.58c0-38.27-31.04-69.29-69.32-69.29s-69.32,31.02-69.32,69.29,31.04,69.29,69.32,69.29,69.32-31.02,69.32-69.29Z"/>
      <path class="st0" d="M682.35,1066.88c6.66-1.82,8.81,6.46,9.25,11.46,1.45,16.49,1.75,52.78-.04,68.96-1.65,14.9-14.19,14.48-15.61-2.19-1.42-16.62-1.61-50.28.06-66.71.38-3.79,2.19-10.39,6.35-11.52Z"/>
      <path class="st0" d="M1057.16,1144.84c11.91-1.34,33.19-1.28,45.25-.32,5.51.44,12.33.63,14.53,6.56-3.07,13.69-21.83,1.82-26.77,14.53-5.69,14.64.99,47.87-1.71,64.97-.99,6.25-8.24,10.3-12.69,5.03-5.63-6.66-1.6-53.04-2.75-65.04-1.86-19.37-25.93-6.59-27.67-17.98-.32-6.78,6.63-7.17,11.82-7.75Z"/>
      <path class="st0" d="M206.47,764.7c11.16-1.61,38.14-1.32,49.73-.27,5.29.48,13.69,2,11.51,9.2-2.36,7.82-21,.3-25.95,11.9-5.65,13.23.85,48.62-1.73,64.95-1.67,10.52-13.76,10.36-15.38-3.39-2.09-17.73,1.65-38.8-.07-56.62-1.77-18.32-20.28-8.27-26.14-14.99-5.63-6.46,2.25-9.95,8.03-10.78Z"/>
      <path class="st0" d="M767.99,909.16c8.8-1.47,34.88-1.19,44.2-.25,11.44,1.15,14.62,10.95,5.34,13.08-12,2.75-44.23-6.51-44.85,13.06-.75,23.78,40.45,7.63,45.1,17.18.9,1.85.9,3.72,0,5.57-3.5,7.2-30.98,2.42-38.09,5.28-8.01,3.23-8.74,16.38-4.58,22.9,5.39,8.45,28.83,4.1,38.21,5.15,12.51,1.41,12.33,12.14-1.07,13.38-10.31.95-33.28,1.11-43.41-.04-9.09-1.03-11-6.63-11.72-14.96-1.43-16.65-1.59-50.23.05-66.71.75-7.46,2.9-12.31,10.82-13.64Z"/>
      <path class="st0" d="M462.88,1150.79c-4.37-4.28-12.05-17.92-2.92-20.53,7.99-2.28,11.16,8.31,15.61,12.05,10.33,8.69,37.57,8.59,37.05-8.36-.46-15.17-25.19-15.62-35.98-19.69-8.79-3.32-18.29-10.53-19.61-20.4-4.18-31.37,40.4-38.06,59.96-22.15,4.63,3.76,14.07,15.9,5.55,20.02-7.68,3.71-11.27-6.18-15.64-9.93-13.41-11.54-41.39-2.46-31.07,13.28,8.76,13.35,43.52,6.81,52.31,28.84,13.77,34.52-42.75,48.93-65.26,26.89Z"/>
      <path class="st0" d="M357.57,915.95c8.99,8.36,20.54,33.67,28.84,45.08,1.86,2.56,7.49,10.6,10.87,9.95,1.64-.81,2.95-2.56,3.53-4.25,4.09-11.96-1.7-44.69,4.33-51.24,5.35-5.82,11.04-.58,11.78,6.16,1.86,16.85,1.61,56.33.01,73.42-.85,9.04-5.12,12.95-14.56,10.02-8.12-2.52-27.01-38.72-33.5-47.64-11.85-16.29-15.27-12.76-16.52,6.42-.59,9.12,1.87,27.7-.45,35.11-2.88,9.19-12.9,6.75-14-5.02-2.19-23.41,1.5-50.46.31-74.25,1.45-10.02,13.31-9.4,19.37-3.77Z"/>
      <path class="st0" d="M565.62,836.89c9.33-1.53,12.27,4.52,15.68,11.59,7.01,14.49,25.8,57.33,28.56,71.48.53,2.72,1.48,6.82-1.71,8.39-11.25,5.52-13.88-12.27-19.46-17.24-6.5-5.79-30.51-5.89-38.08-2.47-9.8,4.43-11.19,28.29-24.58,18.41-.46-1.75-.28-3.5-.09-5.27,1.04-9.62,23.16-62.59,28.64-73.65,2.49-5.03,4.73-10.2,11.03-11.24ZM577.84,890.83c5.54-5.9-6.71-42.4-17.37-20.14-3.34,6.98-8.83,20.73,2.71,22.57,3.57.57,12.12.27,14.66-2.44Z"/>
      <path class="st0" d="M886.41,1101.45c-4.76,4.97-1.55,36.7-2.62,45.72-1.8,15.28-13.89,14.93-15.43-2.12-1.07-11.82-1.6-65.15,1.46-74.11,2.93-8.58,13.62-6.09,19.14-.94,11.11,10.34,21.18,37.25,32.28,49.98,6.37,7.31,10.33,5.43,11.46-3.93,1.43-11.81-2.38-33.31,1.27-43.19,2.66-7.22,10.22-8.77,13.01-.84,2.94,8.36,2.42,62.75,1.45,74.2-1.16,13.68-10.66,17.9-20.66,8.34-11.8-11.28-20.9-37.88-32.94-50.43-2.43-2.53-5.1-5.29-8.44-2.69Z"/>
      <path class="st0" d="M401.01,682.4c6.02-1.35,28.33-.81,35.39-.28,18.47,1.38,33.29,11.13,30.44,31.62-.86,6.21-7.55,13.88-7.54,18.99.01,3.56,3.8,9.95,4.87,13.88,1.7,6.24,7.83,32.43-5.06,28.44-11.04-3.41-3.99-26.94-18.08-34.21-4.86-2.51-18.06-2.8-23.51-1.94-14.74,2.32-3.94,28.35-12.88,34.91-6.1,4.47-10.37-1.77-11.11-7.72,1.97-23.28-2.55-50.6.03-73.38.51-4.5,2.6-9.24,7.46-10.32ZM417.71,695.76c-12.16,2.45-12.51,27.63.93,29.68,11.11,1.7,33.5-.06,32.46-15.77-.99-14.98-22.17-16.17-33.38-13.91Z"/>
      <path class="st0" d="M1501.87,689c6.66-1.82,8.81,6.46,9.25,11.46,1.45,16.49,1.75,52.78-.04,68.96-1.65,14.9-14.19,14.48-15.61-2.19-1.42-16.62-1.61-50.28.06-66.71.38-3.79,2.19-10.39,6.35-11.52Z"/>
      <path class="st0" d="M1204.96,913.58c8.75-2,13.14,2.23,16.87,9.35,7.02,13.39,24.93,56.61,28.29,70.64,3.28,13.74-5.83,16.5-13.07,6.4-4.16-5.8-3.95-12.76-12.25-15.54-5.72-1.92-26.45-1.84-32.07.29-10.55,3.99-10.06,21.05-20.27,20.97-6.7-.05-5.27-7.74-4.22-12.11,3.8-15.9,19.13-51.11,26.52-66.85,2.13-4.54,4.76-11.89,10.2-13.13ZM1207.19,940.21c-5.22,1.53-10.65,18.48-9.67,23.66,1.58,8.33,21.2,8.51,23.11-.22,1.26-5.77-5.62-25.74-13.44-23.44Z"/>
      <path class="st0" d="M990.93,933.08c-1.35-1.34-2.35-6.99-2.53-9.14-1.49-17.84-1.64-52.39,0-70.11.5-5.45,2.27-10.59,8.45-11.56,8.66-1.37,38.84-.73,46.97,1.83,13.74,4.32,20.15,16.58,17.75,30.63-1.03,6.02-6.96,11.94-6.95,18.05,0,4.51,3.72,10.01,4.93,14.51,1.68,6.24,7.11,28.19-3.83,28.2-9.52,0-9.18-20.23-12.22-26.61-4.2-8.82-14.34-11.31-23.38-11.18-24.65.35-11.83,19.68-18.08,33.12-1.91,4.12-8.19,5.17-11.11,2.26ZM1018.25,854.75c-13.25.91-15.78,7.68-14.26,20.27,2.09,17.31,41.55,13.26,42.21-4.57.52-13.85-17.76-16.4-27.95-15.7Z"/>
      <path class="st0" d="M1362.89,836.91c9.93-1.8,31.4-.28,41.19,2.76,40.41,12.53,40.15,77.77-.86,89.78-8.71,2.55-37.08,5.02-44.4,1.03-3.89-2.12-5.32-7.95-5.69-12.1-1.5-16.95-1.64-52.13.06-68.94.64-6.33,2.95-11.31,9.7-12.53ZM1379.57,850.26c-5.27.9-9.58,3.96-10.56,9.44-1.43,7.93-1.33,40.27-.16,48.54,1.33,9.42,9.95,11.17,18.23,10.64,46.07-2.93,38.5-76.45-7.5-68.62Z"/>
      <path class="st0" d="M1677.63,765.85c67.78-6.34,70.1,107.27-4.48,97.18-48.68-6.58-50.85-92.01,4.48-97.18ZM1703.05,841.81c15.6-15.4,12.54-53.96-11.35-60.66-46.65-13.09-53.4,64.83-12.03,68.73,7.4.7,18.02-2.78,23.38-8.07Z"/>
    </g>
  </g>
</svg>